<svg xmlns="http://www.w3.org/2000/svg" width="48" height="48" viewBox="0 0 48 48" fill="none"><g clip-path="url(#clip0)"><path d="M41.25 25.125H38.2513H37.856C38.6649 23.0193 39.0751 20.7994 39.0751 18.5062C39.0751 15.0849 38.1339 11.7428 36.3535 8.84091C36.0828 8.39962 35.5056 8.26144 35.0642 8.53219C34.6229 8.80294 34.4846 9.38025 34.7555 9.82153C36.3548 12.4282 37.2002 15.4313 37.2002 18.5062C37.2002 20.8129 36.7388 23.0363 35.8301 25.125H27.75C27.4385 25.125 27.1341 25.1562 26.8394 25.2145C28.6331 23.5367 29.7562 21.1504 29.7562 18.5062C29.7562 13.4402 25.6348 9.31875 20.5687 9.31875C15.5027 9.31875 11.3813 13.4402 11.3813 18.5062C11.3813 23.5723 15.5027 27.6937 20.5687 27.6937C21.7712 27.6937 22.9203 27.4612 23.9738 27.0393C23.4016 27.8165 23.0625 28.7754 23.0625 29.8125V42.3441L20.5689 45.5386L7.70831 29.0545C7.69641 29.0378 7.68384 29.0212 7.67072 29.0051C5.26331 26.0513 3.9375 22.3228 3.9375 18.5062C3.9375 9.33581 11.3983 1.875 20.5687 1.875C23.5928 1.875 26.5532 2.69438 29.1298 4.24463C29.5734 4.51163 30.1495 4.36828 30.4164 3.92456C30.6833 3.48094 30.5401 2.90484 30.0964 2.63794C27.2281 0.912187 23.9334 0 20.5687 0C10.3643 0 2.0625 8.30184 2.0625 18.5062C2.0625 22.7386 3.52791 26.8739 6.18984 30.1558C6.19434 30.1619 6.19894 30.168 6.20362 30.174L19.8296 47.6391C20.0073 47.8667 20.2799 47.9998 20.5687 47.9999C20.8574 47.9999 21.13 47.8669 21.3077 47.6393L23.3745 44.9914C24.0514 46.749 25.7569 48 27.75 48H41.25C43.8347 48 45.9375 45.8972 45.9375 43.3125V29.8125C45.9375 27.2278 43.8347 25.125 41.25 25.125ZM13.2562 18.5062C13.2562 14.4742 16.5367 11.1938 20.5687 11.1938C24.6008 11.1938 27.8812 14.4742 27.8812 18.5062C27.8812 22.5383 24.6008 25.8187 20.5687 25.8187C16.5367 25.8187 13.2562 22.5384 13.2562 18.5062ZM37.3138 27V31.554L35.0475 29.9297C34.8842 29.8127 34.6927 29.7542 34.5013 29.7542C34.3099 29.7542 34.1184 29.8127 33.9551 29.9297L31.6888 31.554V27H37.3138ZM44.0625 43.3125C44.0625 44.8633 42.8008 46.125 41.25 46.125H27.75C26.1992 46.125 24.9375 44.8633 24.9375 43.3125V29.8125C24.9375 28.2617 26.1992 27 27.75 27H29.8138V33.3793C29.8138 33.7308 30.0104 34.0527 30.323 34.2133C30.6355 34.3737 31.0117 34.3462 31.2975 34.1413L34.5013 31.845L37.7051 34.1413C37.8674 34.2577 38.0589 34.3168 38.2514 34.3168C38.3978 34.3168 38.5446 34.2826 38.6797 34.2133C38.9922 34.0527 39.1888 33.7308 39.1888 33.3793V27H41.25C42.8008 27 44.0625 28.2617 44.0625 29.8125V43.3125Z" fill="#201C1C"></path><path d="M40.875 41.5943H37.9688C37.451 41.5943 37.0312 42.014 37.0312 42.5318C37.0312 43.0496 37.451 43.4693 37.9688 43.4693H40.875C41.3928 43.4693 41.8125 43.0496 41.8125 42.5318C41.8125 42.014 41.3928 41.5943 40.875 41.5943Z" fill="#201C1C"></path><path d="M32.9648 6.9375C33.2114 6.9375 33.4523 6.83719 33.6277 6.66281C33.802 6.48844 33.9023 6.24656 33.9023 6C33.9023 5.75344 33.802 5.51156 33.6277 5.33719C33.4523 5.16281 33.2114 5.0625 32.9648 5.0625C32.7173 5.0625 32.4764 5.16281 32.3011 5.33719C32.1267 5.51156 32.0273 5.75344 32.0273 6C32.0273 6.24656 32.1267 6.48844 32.3011 6.66281C32.4764 6.83719 32.7173 6.9375 32.9648 6.9375Z" fill="#201C1C"></path></g><defs><clipPath id="clip0"><rect width="48" height="48" fill="white"></rect></clipPath></defs></svg>