<svg xmlns="http://www.w3.org/2000/svg" width="50" height="50" viewBox="0 0 50 50" fill="none"><g clip-path="url(#clip3)"><path d="M17.1734 10.7308C17.7139 10.7308 18.1519 10.2932 18.1519 9.75421C18.1519 9.21405 17.7139 8.77765 17.1734 8.77765C16.6333 8.77765 16.1953 9.21405 16.1953 9.75421C16.1953 10.2932 16.6333 10.7308 17.1734 10.7308Z" fill="#201C1C"></path><path d="M43.1954 17.7185C43.9117 16.4654 43.6339 14.8792 42.5346 13.9462L39.2208 11.1378C39.0373 10.9821 38.9127 10.7632 38.8699 10.5217L38.1196 6.27824C37.8689 4.84772 36.6397 3.81012 35.1968 3.81012H30.8713C30.6366 3.81012 30.4073 3.72544 30.2333 3.57819L26.9195 0.709916C26.9169 0.707627 26.9138 0.705338 26.9111 0.702668C25.8035 -0.234223 24.1955 -0.234223 23.0882 0.702668C23.0851 0.705338 23.0825 0.707627 23.0798 0.709916L19.7732 3.57171C19.5921 3.72544 19.3631 3.81012 19.1288 3.81012H14.8021C13.3596 3.81012 12.1304 4.8481 11.8797 6.27671L11.1279 10.524C11.0858 10.7643 10.962 10.9821 10.7785 11.1374L7.46396 13.9466C6.36509 14.8792 6.0876 16.4654 6.80388 17.7181L8.96722 21.5035C9.08838 21.7156 9.13196 21.9647 9.08991 22.2054L8.33847 26.5091C8.08965 27.937 8.89078 29.3339 10.2427 29.8302L14.3079 31.3256C14.389 31.3553 14.4654 31.3954 14.5353 31.4446L6.99957 44.6335C6.56996 45.3854 7.26445 46.2845 8.10265 46.0606L12.5039 44.8838L13.683 49.276C13.9081 50.1149 15.0433 50.2679 15.4779 49.5072L23.2548 35.8975L24.6572 35.3817C24.8777 35.3005 25.1212 35.3009 25.3414 35.3814L26.8496 35.936L35.1941 49.5335C35.6421 50.2629 36.7513 50.1057 36.9737 49.276L38.1532 44.8838L42.5541 46.0606C43.4041 46.2887 44.1032 45.3591 43.6419 44.6072L35.5347 31.3992C35.5848 31.3698 35.6371 31.345 35.6918 31.3252L39.7555 29.8302C41.1101 29.3335 41.9112 27.9362 41.6609 26.5087L40.9094 22.205C40.8674 21.9647 40.9109 21.7152 41.0321 21.5031L43.1954 17.7185ZM14.9573 46.4764L14.1409 43.435C14.001 42.9139 13.4644 42.6049 12.9423 42.7445L9.86084 43.5685L15.7183 33.3161L17.001 35.5599C17.6894 36.7657 19.0979 37.3242 20.4081 36.937L14.9573 46.4764ZM40.6923 43.541L37.7145 42.7445C37.192 42.6049 36.6557 42.9143 36.5158 43.435L35.673 46.5748L29.7904 36.9893C30.0029 37.0362 30.2165 37.0595 30.4287 37.0595C31.4652 37.0591 32.4556 36.5105 32.9979 35.5603L34.346 33.2016L40.6923 43.541ZM39.3324 20.5357C38.9861 21.1415 38.8615 21.8537 38.9815 22.5407L39.733 26.8448C39.8205 27.3419 39.5457 27.8267 39.0797 27.9976L35.016 29.4922C34.4071 29.7158 33.8889 30.1377 33.5395 30.6851C33.4994 30.737 33.4654 30.7927 33.4371 30.851L31.2982 34.5932C31.0528 35.0228 30.5418 35.212 30.0835 35.0441C29.9551 34.9968 26.1211 33.5869 26.0171 33.5488C25.3612 33.3085 24.6385 33.3081 23.9814 33.5492C23.9027 33.5774 22.1686 34.2156 19.9166 35.0441C19.4575 35.2128 18.9465 35.0228 18.7011 34.5929L16.6884 31.0719C16.6421 30.888 16.5431 30.7175 16.3971 30.5851C16.0497 30.0858 15.5559 29.7024 14.9841 29.4926L10.9192 27.9972C10.4544 27.8267 10.1796 27.3415 10.2664 26.8441L11.0178 22.5407C11.1382 21.8537 11.0136 21.1415 10.6673 20.5357L8.50397 16.7504C8.25324 16.3128 8.34956 15.7593 8.73139 15.435L12.0456 12.6263C12.5769 12.1758 12.9358 11.5482 13.0558 10.8616L13.8072 6.61508C13.894 6.12145 14.3125 5.76287 14.8025 5.76287H19.1292C19.8271 5.76287 20.5059 5.51339 21.0479 5.05334L24.3572 2.18964C24.7302 1.87683 25.2695 1.87683 25.6425 2.18964L28.959 5.05982C29.4934 5.51339 30.1726 5.76287 30.8713 5.76287H35.1972C35.6872 5.76287 36.1057 6.12145 36.1925 6.61622L36.9432 10.8612C37.0647 11.5498 37.4236 12.1765 37.9541 12.6263L41.2675 15.4343C41.6501 15.7589 41.7461 16.3124 41.4957 16.7504L39.3324 20.5357Z" fill="#201C1C"></path><path d="M25.001 5.83459C23.3166 5.83459 21.6792 6.15846 20.1343 6.79743C19.6351 7.0038 19.3981 7.57524 19.6049 8.07344C19.8121 8.57164 20.3846 8.80777 20.8834 8.60178C22.1894 8.06124 23.575 7.78734 25.001 7.78734C30.9357 7.78734 35.7639 12.6061 35.7639 18.5292C35.7639 24.4522 30.9357 29.271 25.001 29.271C19.0664 29.271 14.2382 24.4522 14.2382 18.5292C14.2382 16.692 14.711 14.8785 15.6054 13.2851C15.8695 12.8147 15.7013 12.2193 15.23 11.9557C14.7584 11.6921 14.1621 11.8599 13.898 12.3303C12.8404 14.2147 12.2812 16.3582 12.2812 18.5295C12.2812 25.5295 17.9874 31.2245 25.001 31.2245C32.0147 31.2245 37.7208 25.5295 37.7208 18.5295C37.7208 11.5292 32.0147 5.83459 25.001 5.83459Z" fill="#201C1C"></path><path d="M21.1583 19.7892L20.5857 23.1179C20.5226 23.4841 20.6736 23.8545 20.9752 24.0731C21.2729 24.2894 21.672 24.3222 22.0053 24.1475L25.0011 22.5758L27.9969 24.1475C28.3263 24.3203 28.7258 24.2917 29.0273 24.0731C29.3285 23.8545 29.4795 23.4845 29.4164 23.1179L28.8439 19.7892L31.2671 17.4317C31.5339 17.1723 31.6298 16.7843 31.5148 16.4307C31.3994 16.0771 31.0932 15.8196 30.7248 15.7658L27.3758 15.2802L25.8786 12.2517C25.7135 11.9183 25.3733 11.707 25.0011 11.707C24.6284 11.707 24.2882 11.9183 24.1235 12.2517L22.6264 15.2802L19.2774 15.7658C18.9086 15.8196 18.6024 16.0771 18.4874 16.4307C18.3723 16.7843 18.4682 17.1723 18.735 17.4317L21.1583 19.7892ZM23.4168 17.1391C23.7356 17.0929 24.0111 16.8931 24.1537 16.605L25.0011 14.8907L25.8488 16.605C25.991 16.8931 26.2666 17.0929 26.5854 17.1391L28.4815 17.4141L27.1094 18.7489C26.8789 18.9732 26.7738 19.2963 26.8281 19.6133L27.1522 21.4978L25.4563 20.6082C25.3137 20.5334 25.1574 20.496 25.0011 20.496C24.8447 20.496 24.6884 20.5334 24.5459 20.6082L22.85 21.4978L23.1741 19.6133C23.2287 19.2967 23.1232 18.9732 22.8928 18.7489L21.5206 17.4141L23.4168 17.1391Z" fill="#201C1C"></path></g><defs><clipPath id="clip3"><rect width="50" height="50" fill="white"></rect></clipPath></defs></svg>