<svg xmlns="http://www.w3.org/2000/svg" width="48" height="48" viewBox="0 0 48 48" fill="none"><g clip-path="url(#clip2)"><path d="M17.0363 34.3889C16.9685 34.3696 16.8991 34.3587 16.8293 34.3549C17.8562 33.2756 18.4886 31.8175 18.4886 30.2136V25.2813C18.4886 25.2362 18.4843 25.1923 18.4782 25.149C18.4844 25.0599 18.4886 24.9703 18.4886 24.8797V21.7592C18.4886 21.2414 18.0689 20.8217 17.5511 20.8217H11.263C8.61506 20.8217 6.46088 22.9759 6.46088 25.6238V30.2136C6.46088 31.8175 7.09322 33.2756 8.12025 34.3549C8.0505 34.3587 7.98113 34.3696 7.91344 34.3889C3.48309 34.79 0 38.5242 0 43.0572V47.0626C0 47.5803 0.419719 48.0001 0.9375 48.0001H24.0119C24.5297 48.0001 24.9494 47.5803 24.9494 47.0626V43.0572C24.9494 38.5243 21.4665 34.7901 17.0363 34.3889ZM8.33587 26.8127V25.6237C8.33587 24.0097 9.64903 22.6966 11.263 22.6966H16.6136V24.8796C16.6136 25.9787 15.7195 26.8727 14.6205 26.8727H8.33587V26.8127ZM8.33587 28.7477H14.6205C15.3491 28.7477 16.0312 28.5451 16.6136 28.1933V30.2135C16.6136 32.4957 14.7569 34.3524 12.4747 34.3524C10.1926 34.3524 8.33587 32.4957 8.33587 30.2135V28.7477ZM14.5152 36.2275L12.4747 38.2681L10.4343 36.2275H14.5152ZM23.0745 46.1251H1.875V44.2501H5.76562C6.28341 44.2501 6.70312 43.8303 6.70312 43.3126C6.70312 42.7948 6.28341 42.3751 5.76562 42.3751H1.90922C2.22412 39.2142 4.70353 36.6828 7.83938 36.2842L11.8118 40.2567C11.9876 40.4325 12.2261 40.5313 12.4747 40.5313C12.7234 40.5313 12.9619 40.4325 13.1377 40.2567L17.1101 36.2842C20.4686 36.7111 23.0745 39.5846 23.0745 43.0572V46.1251Z" fill="#201C1C"></path><path d="M40.0873 13.5673C40.0195 13.548 39.9501 13.5371 39.8801 13.5334C40.9071 12.454 41.5394 10.9959 41.5394 9.39206V4.45969C41.5394 4.41459 41.5351 4.37063 41.529 4.32731C41.5352 4.23825 41.5394 4.14862 41.5394 4.05806V0.9375C41.5394 0.419719 41.1197 0 40.6019 0H34.3138C31.6658 0 29.5117 2.15428 29.5117 4.80216V9.39197C29.5117 10.9958 30.144 12.4539 31.1709 13.5333C31.1011 13.537 31.0315 13.5479 30.9638 13.5672C26.5336 13.9686 23.0508 17.7027 23.0508 22.2355V26.2408C23.0508 26.7586 23.4705 27.1783 23.9883 27.1783H31.5314C32.0492 27.1783 32.4689 26.7586 32.4689 26.2408C32.4689 25.723 32.0492 25.3033 31.5314 25.3033H24.9258V22.2356C24.9258 18.763 27.5316 15.8895 30.8901 15.4627L34.8625 19.4351C35.0456 19.6182 35.2855 19.7097 35.5254 19.7097C35.7653 19.7097 36.0053 19.6182 36.1883 19.4351L40.1608 15.4627C43.5195 15.8896 46.1253 18.763 46.1253 22.2356V25.3034H39.219C38.7012 25.3034 38.2815 25.7231 38.2815 26.2409C38.2815 26.7587 38.7012 27.1784 39.219 27.1784H47.0628C47.5806 27.1784 48.0003 26.7587 48.0003 26.2409V22.2356C48.0003 17.7028 44.5174 13.9687 40.0873 13.5673ZM35.5256 17.4464L33.4852 15.4059H37.5661L35.5256 17.4464ZM39.6645 9.39197C39.6645 11.6741 37.8078 13.5308 35.5256 13.5308C33.2435 13.5308 31.3868 11.6742 31.3868 9.39206V7.92619H37.6714C38.4 7.92619 39.082 7.72341 39.6645 7.37175V9.39197ZM39.6645 4.05806C39.6645 5.15709 38.7704 6.05119 37.6714 6.05119H31.3868V5.99109V4.80216C31.3868 3.18816 32.6999 1.875 34.3139 1.875H39.6645V4.05806Z" fill="#201C1C"></path><path d="M36.1882 25.5779C36.0138 25.4035 35.772 25.3032 35.5254 25.3032C35.2779 25.3032 35.037 25.4035 34.8626 25.5779C34.6873 25.7523 34.5879 25.9942 34.5879 26.2407C34.5879 26.4882 34.6873 26.7292 34.8626 26.9035C35.037 27.0788 35.2779 27.1782 35.5254 27.1782C35.772 27.1782 36.0138 27.0788 36.1882 26.9035C36.3626 26.7292 36.4629 26.4882 36.4629 26.2407C36.4629 25.9942 36.3626 25.7523 36.1882 25.5779Z" fill="#201C1C"></path><path d="M25.0692 13.1183L21.1485 9.19763V4.6875C21.1485 2.10281 19.0457 0 16.461 0H4.6875C2.10281 0 0 2.10281 0 4.6875V12.9375C0 15.5222 2.10281 17.625 4.6875 17.625H16.4609C18.3991 17.625 20.0892 16.4618 20.7983 14.7188H24.4062C24.7853 14.7188 25.1272 14.4903 25.2724 14.14C25.4175 13.7898 25.3372 13.3865 25.0692 13.1183ZM20.1144 12.8438C19.6777 12.8438 19.2987 13.1453 19.2008 13.5711C18.9056 14.8539 17.779 15.75 16.4609 15.75H4.6875C3.13669 15.75 1.875 14.4883 1.875 12.9375V4.6875C1.875 3.13669 3.13669 1.875 4.6875 1.875H16.4609C18.0117 1.875 19.2734 3.13669 19.2734 4.6875V9.58594C19.2734 9.83456 19.3722 10.0731 19.548 10.2488L22.1429 12.8438H20.1144Z" fill="#201C1C"></path><path d="M43.3125 30.375H31.5391C29.6009 30.375 27.9108 31.5382 27.2017 33.2812H23.5938C23.2147 33.2812 22.8728 33.5097 22.7276 33.86C22.5825 34.2102 22.6628 34.6135 22.9308 34.8817L26.8515 38.8024V43.3125C26.8515 45.8972 28.9543 48 31.539 48H43.3125C45.8972 48 48 45.8972 48 43.3125V35.0625C48 32.4778 45.8972 30.375 43.3125 30.375ZM46.125 43.3125C46.125 44.8633 44.8633 46.125 43.3125 46.125H31.5391C29.9883 46.125 28.7266 44.8633 28.7266 43.3125V38.4141C28.7266 38.1654 28.6278 37.9269 28.452 37.7512L25.8571 35.1562H27.8856C28.3224 35.1562 28.7013 34.8547 28.7993 34.4289C29.0944 33.1461 30.221 32.25 31.5391 32.25H43.3125C44.8633 32.25 46.125 33.5117 46.125 35.0625V43.3125Z" fill="#201C1C"></path><path d="M41.6397 36.6929C41.2737 36.3268 40.6801 36.3268 40.314 36.6929L37.8218 39.1851L36.663 38.0262C36.2969 37.6601 35.7033 37.6601 35.3371 38.0262C34.971 38.3923 34.971 38.9859 35.3371 39.3521L37.1588 41.1739C37.3419 41.357 37.5818 41.4485 37.8217 41.4485C38.0616 41.4485 38.3016 41.357 38.4846 41.1739L41.6397 38.0188C42.0058 37.6527 42.0058 37.0591 41.6397 36.6929Z" fill="#201C1C"></path><path d="M14.8368 6.21253C14.726 4.605 13.4302 3.30918 11.8226 3.19837C10.9111 3.13565 10.0422 3.44315 9.37659 4.06453C8.72025 4.67718 8.34375 5.54343 8.34375 6.441C8.34384 6.95887 8.76356 7.37859 9.28134 7.37859C9.79913 7.37859 10.2188 6.95887 10.2188 6.44109C10.2188 6.05568 10.3741 5.6985 10.6561 5.43525C10.9376 5.17237 11.3065 5.04187 11.6938 5.06906C12.3725 5.11584 12.9195 5.66287 12.9663 6.34153C13.0136 7.02768 12.5638 7.63406 11.8968 7.78331C11.1667 7.94662 10.6568 8.5814 10.6568 9.3269V9.82706C10.6568 10.3448 11.0765 10.7646 11.5943 10.7646C12.112 10.7646 12.5318 10.3448 12.5318 9.82706V9.55425C13.9843 9.12093 14.9429 7.75153 14.8368 6.21253Z" fill="#201C1C"></path><path d="M12.2566 12.7518C12.0822 12.5774 11.8403 12.4771 11.5938 12.4771C11.3462 12.4771 11.1053 12.5774 10.9309 12.7518C10.7556 12.9262 10.6562 13.168 10.6562 13.4146C10.6562 13.6612 10.7556 13.903 10.9309 14.0774C11.1053 14.2518 11.3462 14.3521 11.5938 14.3521C11.8403 14.3521 12.0822 14.2518 12.2566 14.0774C12.4309 13.903 12.5312 13.6612 12.5312 13.4146C12.5312 13.168 12.4309 12.9262 12.2566 12.7518Z" fill="#201C1C"></path><path d="M10.1784 42.6497C10.0041 42.4753 9.76219 42.375 9.51562 42.375C9.26906 42.375 9.02719 42.4753 8.85281 42.6497C8.67844 42.8241 8.57812 43.0659 8.57812 43.3125C8.57812 43.5591 8.67844 43.8009 8.85281 43.9753C9.02719 44.1497 9.26906 44.25 9.51562 44.25C9.76219 44.25 10.0041 44.1497 10.1784 43.9753C10.3528 43.8009 10.4531 43.5591 10.4531 43.3125C10.4531 43.0659 10.3528 42.8241 10.1784 42.6497Z" fill="#201C1C"></path></g><defs><clipPath id="clip2"><rect width="48" height="48" fill="white"></rect></clipPath></defs></svg>